<?xml version="1.0" standalone="yes"?>
<svg xmlns="http://www.w3.org/2000/svg" width="356" height="332">
<path style="fill:#fefefe; stroke:none;" d="M0 0L0 332L356 332L356 0L0 0z"/>
<path style="fill:#2b3038; stroke:none;" d="M143 139L204 139L204 184C204 190.858 202.654 199.388 204.649 206C208.691 219.396 226.671 223.148 236.957 214.61C245.17 207.792 244.001 196.598 244 187C244 183.611 244.873 178.277 242.258 175.603C240.227 173.527 236.633 174.009 234 174C234 182.23 236.229 194.271 233.258 201.999C231.505 206.557 226.062 210.919 221.004 209.102C213.798 206.514 214 199.324 214 193L214 149C214 144.311 216.083 132.998 210.772 130.603C206.082 128.489 198.074 130 193 130L152 130C147.542 130 136.884 128.038 134.028 132.318C131.194 136.565 133 146.066 133 151C133 166.703 134.635 183.4 132.891 199C131.982 207.138 122.825 212.883 116.214 206.656C111.95 202.64 112.002 197.425 112 192L112 169L112 65C112 55.6076 110.152 43.9151 113.563 35C114.989 31.2731 118.397 26.2404 123 26.662C127.113 27.0389 130.464 31.4612 131.852 35C134.794 42.5028 133 53.0548 133 61L133 96C133 99.5655 132.001 105.61 135.434 107.972C137.727 109.551 141.375 108.999 144 109L162 109C161.249 105.731 161.249 103.269 162 100L143 100L143 55C143 47.2852 144.275 38.2293 141.03 31C134.382 16.1867 112.095 14.9159 104.92 30.0008C102.273 35.5647 103 42.0164 103 48L103 81L103 161C103 174.533 101.983 188.514 103.093 202C104.625 220.601 132.164 225.816 140.431 208.999C144.02 201.699 143 192.865 143 185L143 139M219 19.6127C206.169 23.0069 204 33.4914 204 45L204 79C204 84.2433 205.077 90.8634 203.682 95.9414C202.657 99.6748 199.336 99.9326 196 99.9954C191.127 100.087 181.583 98.121 177.438 101.028C173.625 103.701 176.316 108.233 180.044 108.852C188.204 110.206 198.758 109.664 206.999 108.941C215.559 108.191 214 99.3851 214 93C214 76.0008 213.912 58.999 214.001 42C214.03 36.3521 217.388 22.3551 225.985 25.3928C235.577 28.7823 234 43.2106 234 51L234 127C234 134.74 232.936 143.35 234.148 150.995C234.669 154.28 237.163 157.344 240.853 156.623C244.662 155.879 243.994 150.88 244 148L244 122L244 64C244 54.8135 245.568 43.9894 243.61 35C241.302 24.4071 229.549 16.8221 219 19.6127M47 247C42.6477 250.318 38.0503 252.897 33 255C36.6161 270.819 35 287.801 35 304L48 304L48 265C48 259.381 49.1889 252.216 47 247M125 272C129.097 287.487 127 305.021 127 321L140 321L140 264C134.783 265.974 129.826 269.181 125 272M79 265C83.7799 278.056 93.3253 291.401 101 303C104.055 300.2 108.295 295.495 107.958 291C107.583 286.017 102.708 280.19 100.2 276C98.2865 272.805 96.1922 267.249 92.6211 265.603C88.9282 263.901 82.9991 265 79 265M106 265C109.042 269.619 112.416 273.615 114 279C119.023 276.252 122.488 270.05 125 265L106 265M151 265C156.979 278.968 156.836 288.96 151 303C154.499 302.925 157.88 302.693 160.999 300.91C178.858 290.704 169.799 265.861 151 265M205 265L205 303L219 303C219 288.931 222.13 270.088 205 265M244 303C238.325 289.165 237.969 278.419 245 265C239.859 265.235 235.085 266.574 231.329 270.329C219.577 282.082 227.646 302.616 244 303M254 265C258.969 278.891 261.018 289.267 254 303C257.134 302.933 260.132 302.778 262.985 301.312C280.913 292.102 271.83 266.567 254 265M296 265C301.335 270.011 307.632 272.816 312 279C313.769 274.783 313 269.541 313 265L296 265M61 266L61 304C64.3498 304 71.6295 305.355 73.9722 302.397C76.0457 299.779 75 294.122 75 291C75 280.525 73.8866 267.723 61 266M180 270L180 303L194 303L194 266L180 270M279 270C279.161 288.059 299.006 294.899 314 299C313.851 281.255 294.591 272.685 279 270M279 290L279 303L294 303C289.714 298.306 284.199 293.662 279 290M95 313L95 311C92.6229 309.191 90.5716 306.393 87.9105 305.032C80.3645 301.171 75.8378 313.287 84.044 315.562C85.638 316.005 87.3889 315.928 88.9954 315.607C91.215 315.164 93.0556 314.089 95 313z"/>
</svg>
